# xmcd
#
# Track frame offsets:
#	150
#	3899
#	22876
#	53195
#	98373
#	120503
#	154942
#	283898
#
# Disc length: 4113 seconds
#
# Revision: 0
# Processed by: cddbd v1.5.2PL0 Copyright (c) Steve Scherf et al.
# Submitted via: EasyCDDAExtractor 9.0.0.1
#
DISCID=57100f08
DTITLE=Iron Maiden - Earl's Court London 22-12-06 Disc 1
DYEAR=2006
DGENRE=Hard Rock
TTITLE0=Intro
TTITLE1=Different World
TTITLE2=These Colours Don't Run
TTITLE3=Brighter Than A Thousand Suns
TTITLE4=The Pilgrim
TTITLE5=The Longest Day
TTITLE6=No Smoking Please
TTITLE7=Out Of The Shadows
EXTD=
EXTT0=
EXTT1=
EXTT2=
EXTT3=
EXTT4=
EXTT5=
EXTT6=
EXTT7=
PLAYORDER=
